<svg xmlns="http://www.w3.org/2000/svg" viewBox="0 0 276 46.5099983215332" data-asc="0.72021484375" width="276" height="46.5099983215332"><defs/><g fill="#000000"><g transform="translate(0, 0)"><path d="M30.05 1.00L30.05 36.01L25.05 36.01L25.05 21.02L5.00 21.02L5.00 36.01L0 36.01L0 1.00L5.00 1.00L5.00 16.02L25.05 16.02L25.05 1.00L30.05 1.00ZM38.55 24.66Q38.55 23.66 38.93 22.79Q39.31 21.92 39.95 21.26Q40.60 20.61 41.48 20.23Q42.36 19.85 43.33 19.85L55.74 19.85L55.74 14.82L40.04 14.82L40.04 10.01L55.74 10.01Q56.74 10.01 57.62 10.39Q58.50 10.77 59.14 11.41Q59.79 12.06 60.17 12.94Q60.55 13.82 60.55 14.82L60.55 36.01L55.74 36.01L55.74 31.62Q55.66 32.52 55.25 33.33Q54.83 34.13 54.19 34.73Q53.54 35.33 52.71 35.67Q51.88 36.01 50.95 36.01L43.33 36.01Q42.36 36.01 41.48 35.63Q40.60 35.25 39.95 34.61Q39.31 33.96 38.93 33.08Q38.55 32.20 38.55 31.20L38.55 24.66M43.33 31.20L55.74 31.20L55.74 24.66L43.33 24.66L43.33 31.20ZM85.74 36.01L73.34 24.90L73.34 36.01L68.55 36.01L68.55 0L73.34 0L73.34 20.26L84.74 10.01L91.50 10.01L77.54 22.56L92.50 36.01L85.74 36.01ZM111.69 31.20L111.69 25.17L100.29 25.17Q99.29 25.17 98.41 24.79Q97.53 24.41 96.89 23.77Q96.24 23.12 95.86 22.24Q95.48 21.36 95.48 20.36L95.48 14.82Q95.48 13.82 95.86 12.94Q96.24 12.06 96.89 11.41Q97.53 10.77 98.41 10.39Q99.29 10.01 100.29 10.01L115.50 10.01L115.50 14.82L100.29 14.82L100.29 20.36L111.69 20.36Q112.70 20.36 113.56 20.74Q114.43 21.12 115.09 21.77Q115.75 22.41 116.13 23.29Q116.50 24.17 116.50 25.17L116.50 31.20Q116.50 32.20 116.13 33.08Q115.75 33.96 115.09 34.61Q114.43 35.25 113.56 35.63Q112.70 36.01 111.69 36.01L95.48 36.01L95.48 31.20L111.69 31.20ZM146.00 25.46L128.78 25.46L128.78 31.20L146.00 31.20L146.00 36.01L128.78 36.01Q127.81 36.01 126.93 35.63Q126.05 35.25 125.40 34.61Q124.76 33.96 124.38 33.08Q124.00 32.20 124.00 31.20L124.00 14.82Q124.00 13.82 124.38 12.94Q124.76 12.06 125.40 11.41Q126.05 10.77 126.93 10.39Q127.81 10.01 128.78 10.01L141.19 10.01Q142.19 10.01 143.07 10.39Q143.95 10.77 144.59 11.41Q145.24 12.06 145.62 12.94Q146.00 13.82 146.00 14.82L146.00 25.46M128.78 14.82L128.78 20.65L141.19 20.65L141.19 14.82L128.78 14.82ZM177.00 36.01L172.19 36.01L172.19 14.82L158.79 14.82L158.79 36.01L154.00 36.01L154.00 10.01L158.79 10.01L158.79 14.60Q158.84 13.65 159.23 12.81Q159.62 11.96 160.27 11.34Q160.91 10.72 161.77 10.36Q162.62 10.01 163.60 10.01L172.19 10.01Q173.19 10.01 174.07 10.39Q174.95 10.77 175.60 11.41Q176.25 12.06 176.62 12.94Q177.00 13.82 177.00 14.82L177.00 36.01ZM185.01 14.82Q185.01 13.82 185.39 12.94Q185.77 12.06 186.41 11.41Q187.06 10.77 187.94 10.39Q188.82 10.01 189.79 10.01L198.41 10.01Q199.37 10.01 200.22 10.36Q201.07 10.72 201.72 11.34Q202.37 11.96 202.77 12.81Q203.17 13.65 203.20 14.60L203.20 10.01L208.01 10.01L208.01 41.70Q208.01 42.70 207.63 43.58Q207.25 44.46 206.60 45.10Q205.96 45.75 205.08 46.13Q204.20 46.51 203.20 46.51L188.01 46.51L188.01 41.70L203.20 41.70L203.20 35.01L189.79 35.01Q188.82 35.01 187.94 34.63Q187.06 34.25 186.41 33.61Q185.77 32.96 185.39 32.08Q185.01 31.20 185.01 30.20L185.01 14.82M203.20 30.20L203.20 14.82L189.79 14.82L189.79 30.20L203.20 30.20ZM216.50 1.00L221.51 1.00L221.51 31.01L241.50 31.01L241.50 1.00L246.51 1.00L246.51 31.01Q246.51 32.03 246.12 32.95Q245.73 33.86 245.04 34.55Q244.36 35.23 243.44 35.62Q242.53 36.01 241.50 36.01L221.51 36.01Q220.48 36.01 219.57 35.62Q218.65 35.23 217.97 34.55Q217.29 33.86 216.89 32.95Q216.50 32.03 216.50 31.01L216.50 1.00ZM254.49 10.01L276.00 10.01L276.00 11.30L262.16 31.20L276.00 31.20L276.00 36.01L254.00 36.01L254.00 34.72L267.85 14.82L254.49 14.82L254.49 10.01Z"/></g></g></svg>